# Blender v3.2.2 OBJ File: ''
# www.blender.org
mtllib testing_obj.mtl
o Cone_Cone.001
v -0.130780 -1.132065 -1.936606
v 0.735245 -1.132065 -0.436606
v -0.996806 -1.132065 -0.699404
v -0.130780 2.016828 -0.936606
v 1.151138 -1.224523 -0.165314
v 2.017163 -1.224523 1.334686
v 0.285112 -1.224523 1.071888
v 1.114686 2.719253 0.483972
v -0.664302 -1.291821 -0.613442
v 0.201724 -1.291821 0.886558
v -1.530327 -1.291821 0.623760
v -0.086315 1.107821 0.575961
vt 0.250000 0.490000
vt 0.250000 0.250000
vt 0.457846 0.130000
vt 0.750000 0.490000
vt 0.957846 0.130000
vt 0.542154 0.130000
vt 0.042154 0.130000
vt 0.250000 0.490000
vt 0.250000 0.250000
vt 0.457846 0.130000
vt 0.750000 0.490000
vt 0.957846 0.130000
vt 0.542154 0.130000
vt 0.042154 0.130000
vt 0.250000 0.490000
vt 0.250000 0.250000
vt 0.457846 0.130000
vt 0.750000 0.490000
vt 0.957846 0.130000
vt 0.542154 0.130000
vt 0.042154 0.130000
vn 0.8553 0.1568 -0.4938
vn 0.0000 -1.0000 0.0000
vn -0.1490 0.1150 0.9821
vn -0.8060 0.1792 -0.5642
vn 0.8625 0.0900 -0.4980
vn -0.1477 0.1761 0.9732
vn -0.8162 0.0865 -0.5713
vn 0.8654 0.0392 -0.4996
vn -0.1491 0.1093 0.9828
vn -0.7381 0.4339 -0.5167
usemtl None
s off
f 1/1/1 4/2/1 2/3/1
f 1/4/2 2/5/2 3/6/2
f 2/3/3 4/2/3 3/7/3
f 3/7/4 4/2/4 1/1/4
f 5/8/5 8/9/5 6/10/5
f 5/11/2 6/12/2 7/13/2
f 6/10/6 8/9/6 7/14/6
f 7/14/7 8/9/7 5/8/7
f 9/15/8 12/16/8 10/17/8
f 9/18/2 10/19/2 11/20/2
f 10/17/9 12/16/9 11/21/9
f 11/21/10 12/16/10 9/15/10
